<svg xmlns="http://www.w3.org/2000/svg" fill="none" viewBox="0 0 24 24" stroke-width="1.5" stroke="currentColor" class="w-6 h-6">
  <path stroke-linecap="round" stroke-linejoin="round" d="M8.625 9.75a.375.375 0 11-.75 0 .375.375 0 01.75 0zm4.875 0a.375.375 0 11-.75 0 .375.375 0 01.75 0zm4.875 0a.375.375 0 11-.75 0 .375.375 0 01.75 0zm-9.75 0a.375.375 0 11-.75 0 .375.375 0 01.75 0zm-4.875 0a.375.375 0 11-.75 0 .375.375 0 01.75 0z" />
  <path stroke-linecap="round" stroke-linejoin="round" d="M12 19.5v-1.5m0-1.833a2.333 2.333 0 012.333-2.333M12 15.667a4 4 0 00-4 4v1.667m8-1.667a4 4 0 01-4-4v-1.533M12 9.167v-1.5" />
</svg> 