<svg xmlns="http://www.w3.org/2000/svg" fill="none" viewBox="0 0 24 24" stroke-width="1.5" stroke="currentColor" class="w-6 h-6">
  <path stroke-linecap="round" stroke-linejoin="round" d="M12 21a9.004 9.004 0 008.716-4.037m-7.92-1.42l-4.72-4.72a1.5 1.5 0 01-1.06-1.06l-1.06-1.06a1.5 1.5 0 00-2.12 0l-1.06 1.06a1.5 1.5 0 01-1.06 1.06l-4.72 4.72a9.004 9.004 0 008.716 4.037zM12 21a9.004 9.004 0 01-8.716-4.037m17.432 0a9.004 9.004 0 00-8.716-4.037m0 0a9.004 9.004 0 01-8.716 4.037m17.432 0a9.004 9.004 0 018.716-4.037m-17.432 0a9.004 9.004 0 008.716 4.037m0 0a9.004 9.004 0 018.716 4.037" />
</svg>